<?xml version="1.0" encoding="UTF-8"?><svg id="Layer_2" xmlns="http://www.w3.org/2000/svg" viewBox="0 0 154.81 142.22"><defs><style>.cls-1{fill:#fff;stroke-width:0px;}</style></defs><g id="Layer_1-2"><path class="cls-1" d="M77.4,0C34.65,0,0,27.39,0,61.19c0,22,14.68,41.27,36.72,52.06-1.62,6.05-5.86,21.9-6.71,25.29-1.05,4.21,1.54,4.15,3.24,3.02,1.33-.89,21.21-14.4,29.79-20.23,4.65.69,9.46,1.06,14.37,1.06,42.75,0,77.4-27.4,77.4-61.19S120.15,0,77.4,0ZM39.25,78.14c0,.99-.41,1.96-1.12,2.66-.7.7-1.67,1.1-2.67,1.1h-.83c-1,0-1.98-.4-2.68-1.1-.71-.7-1.12-1.67-1.12-2.66v-27.12h-7.1c-2.18,0-3.94-1.83-3.8-4.04.12-2.04,1.91-3.57,3.95-3.57h22.25c2.19,0,3.94,1.84,3.81,4.05-.12,2.04-1.91,3.57-3.95,3.57h-6.73v27.12ZM76.36,81.64c-1.95.69-4.09-.34-4.77-2.29l-1.92-5.48h-15.44l-1.92,5.48c-.69,1.95-2.82,2.98-4.77,2.29-1.94-.68-2.97-2.82-2.29-4.77l11.09-29.75c.06-.18.14-.34.22-.51.45-2.2,2.73-3.88,5.48-3.88,2.48,0,4.56,1.37,5.29,3.25.01,0,.04.03.04.03l11.28,30.86c.68,1.95-.34,4.09-2.29,4.77ZM104.27,78.59c-.25,1.7-1.8,2.9-3.51,2.9h-15.48c-1.95,0-3.52-1.53-3.52-3.41,0-.22.02-.44.07-.65-.04-.21-.07-.43-.07-.65v-29.11c0-2.47,2.27-4.43,4.9-4.02,2.05.32,3.52,2.17,3.52,4.24v26.79h10.61c2.12,0,3.8,1.81,3.48,3.91ZM133.89,81.15c-1.66,1.25-4.03.91-5.27-.75l-11.19-14.68-2.4,2.4v9.57c0,2.66-2.46,4.74-5.22,4.09-1.9-.44-3.2-2.22-3.2-4.17v-30.94c0-2.66,2.46-4.74,5.22-4.1,1.9.44,3.2,2.22,3.2,4.17v10.89l13.23-13.23c1.45-1.45,3.8-1.45,5.24,0,1.45,1.45,1.45,3.8,0,5.24l-10.68,10.69,11.83,15.53c1.25,1.66.91,4.03-.75,5.27Z"/><path class="cls-1" d="M61.87,51.85l-5.19,14.8h10.54l-5.19-14.8h-.16Z"/></g></svg>