<?xml version="1.0" standalone="no"?>
<!DOCTYPE svg PUBLIC "-//W3C//DTD SVG 20010904//EN"
 "http://www.w3.org/TR/2001/REC-SVG-20010904/DTD/svg10.dtd">
<svg version="1.0" xmlns="http://www.w3.org/2000/svg"
 width="1044.000000pt" height="1044.000000pt" viewBox="0 0 1044.000000 1044.000000"
 preserveAspectRatio="xMidYMid meet">
<metadata>
Created by potrace 1.14, written by Peter Selinger 2001-2017
</metadata>
<g transform="translate(0.000000,1044.000000) scale(0.100000,-0.100000)"
fill="#000000" stroke="none">
<path d="M4731 9666 c-12 -15 -42 -83 -82 -186 -18 -47 -37 -88 -42 -91 -5 -3
-8 -10 -7 -15 1 -8 -7 -29 -45 -119 -7 -16 -18 -41 -23 -55 -34 -80 -54 -127
-62 -145 -18 -39 -48 -112 -100 -235 -53 -126 -63 -149 -119 -273 -17 -38 -31
-71 -31 -74 0 -2 -14 -35 -31 -71 -17 -37 -31 -71 -32 -77 -1 -5 -4 -12 -8
-15 -8 -8 -44 -104 -41 -112 1 -5 -2 -8 -7 -8 -8 0 -21 -26 -26 -50 -1 -3 -14
-32 -30 -65 -15 -33 -29 -64 -31 -70 -1 -5 -23 -54 -48 -108 -25 -54 -46 -99
-46 -101 0 -2 -12 -30 -27 -62 -15 -33 -28 -61 -28 -64 0 -3 -9 -23 -19 -45
-11 -22 -35 -74 -54 -115 -19 -41 -35 -81 -35 -87 0 -7 -4 -13 -9 -13 -4 0 -8
-5 -8 -10 0 -15 -90 -209 -100 -215 -4 -3 -119 -8 -410 -21 -52 -2 -140 -6
-195 -9 -55 -3 -140 -8 -190 -10 -200 -10 -364 -21 -426 -30 -20 -3 -54 -8
-75 -10 -21 -2 -50 -7 -64 -10 -14 -3 -45 -10 -70 -15 -25 -5 -67 -16 -95 -26
-27 -9 -54 -18 -60 -19 -12 -3 -38 -13 -90 -35 -22 -10 -60 -24 -85 -31 -25
-7 -47 -13 -50 -14 -3 -1 -18 -5 -35 -10 -45 -11 -205 -87 -205 -97 0 -4 -5
-8 -11 -8 -13 0 -75 -46 -109 -82 -50 -52 -66 -74 -88 -118 -23 -48 -32 -105
-48 -295 -4 -44 -8 -93 -10 -110 -2 -16 -6 -59 -9 -95 -3 -36 -7 -83 -10 -105
-2 -22 -7 -71 -10 -110 -3 -38 -8 -81 -10 -95 -2 -14 -7 -63 -11 -110 -3 -47
-8 -96 -9 -110 -2 -14 -6 -61 -10 -105 -4 -44 -8 -93 -10 -110 -14 -126 -17
-156 -20 -200 -2 -27 -6 -75 -9 -105 -3 -30 -8 -84 -12 -120 -3 -36 -7 -78 -9
-95 -2 -16 -6 -66 -10 -111 -3 -44 -7 -90 -10 -102 -2 -11 -6 -56 -9 -99 -3
-43 -8 -89 -10 -103 -3 -14 -7 -59 -11 -100 -3 -41 -7 -84 -10 -95 -2 -11 -4
-23 -4 -27 -1 -4 -22 -16 -48 -28 -126 -55 -142 -64 -136 -74 3 -6 3 -8 -2 -4
-4 4 -22 0 -39 -9 -38 -20 -168 -107 -187 -126 -8 -7 -22 -16 -32 -20 -10 -4
-15 -12 -12 -17 4 -6 2 -9 -3 -8 -10 3 -135 -104 -183 -157 -51 -56 -131 -155
-125 -155 3 0 -5 -11 -17 -24 -32 -35 -41 -47 -63 -86 -10 -19 -25 -41 -31
-48 -7 -7 -16 -24 -19 -38 -3 -13 -9 -24 -13 -24 -4 0 -13 -16 -20 -35 -7 -19
-17 -35 -22 -35 -5 0 -8 -3 -7 -8 1 -8 -5 -24 -33 -87 -10 -23 -21 -54 -25
-70 -4 -17 -10 -32 -14 -35 -6 -5 -59 -194 -66 -240 -2 -14 -7 -35 -9 -48 -19
-81 -26 -430 -11 -527 19 -129 33 -196 54 -262 6 -18 8 -33 5 -33 -3 0 -1 -6
4 -12 6 -7 14 -26 18 -43 10 -37 9 -34 23 -68 7 -16 12 -30 12 -32 0 -3 13
-32 29 -65 16 -33 26 -60 23 -60 -4 0 1 -5 10 -10 9 -6 19 -23 23 -39 3 -16
13 -35 21 -42 8 -6 14 -16 14 -21 0 -11 95 -154 120 -179 8 -9 24 -29 35 -45
21 -31 235 -249 235 -240 0 3 11 -5 24 -17 63 -57 76 -67 81 -67 3 0 26 -15
52 -34 103 -73 344 -193 363 -181 6 3 10 2 10 -4 0 -5 33 -19 72 -31 40 -12
85 -26 99 -31 14 -6 39 -11 55 -13 16 -2 29 -5 29 -6 0 -1 15 -3 33 -5 18 -2
41 -9 50 -17 13 -11 14 -11 8 1 -7 10 -3 12 14 6 43 -14 77 -16 246 -19 171
-3 252 4 423 39 13 2 49 12 80 21 31 9 61 17 66 19 6 1 23 7 38 13 16 7 33 12
38 12 6 0 7 4 4 10 -3 6 1 7 10 4 8 -4 40 6 70 20 31 14 60 26 65 26 6 0 10 5
10 10 0 6 4 9 8 8 6 -3 88 39 151 77 59 35 97 61 107 70 6 5 23 19 38 30 27
20 49 38 93 75 12 10 24 16 27 13 3 -4 6 1 6 10 0 10 5 17 11 17 6 0 28 19 49
41 21 23 43 38 49 35 7 -4 9 -1 5 8 -7 19 33 59 53 52 13 -5 14 -4 4 8 -8 10
-9 16 -1 21 5 3 10 2 10 -4 0 -10 18 -10 37 2 6 4 14 3 18 -2 3 -5 14 -8 25
-6 27 5 25 -9 -2 -30 -22 -16 -22 -16 4 -1 20 12 28 13 32 3 3 -6 3 -1 0 13
l-7 24 28 -18 c23 -15 27 -16 22 -3 -5 12 -1 14 21 8 15 -4 55 -7 90 -6 34 0
62 -3 62 -8 0 -5 6 -4 14 2 11 9 15 9 19 -1 3 -7 6 -8 6 -3 1 6 26 9 61 7 42
-3 58 -7 53 -15 -5 -9 -3 -9 8 -1 8 6 37 9 64 8 28 -2 100 -5 160 -8 61 -3
162 -8 225 -12 63 -3 152 -7 197 -8 46 0 83 -3 83 -6 0 -3 47 -5 105 -5 58 0
105 -2 105 -5 0 -3 33 -5 73 -6 39 -1 109 -3 155 -6 55 -3 82 -1 82 6 0 7 3 7
8 -1 4 -7 57 -13 142 -17 74 -3 178 -8 230 -11 52 -3 142 -8 200 -10 58 -2
105 -4 105 -5 0 -2 78 -6 280 -15 61 -2 169 -7 240 -11 72 -3 156 -7 187 -8
32 0 58 -3 58 -6 0 -3 30 -5 68 -6 67 -1 361 -14 437 -20 72 -5 210 -5 235 0
46 10 155 50 171 63 8 7 23 13 32 13 9 0 17 5 17 11 0 6 7 9 15 5 8 -3 14 -2
12 2 -1 4 18 28 43 53 64 63 99 106 93 112 -3 3 3 4 13 3 10 -2 20 -9 22 -16
3 -7 0 -10 -6 -6 -13 8 -44 -22 -37 -35 4 -5 12 -9 18 -9 7 0 6 4 -3 10 -8 5
-12 10 -7 11 13 3 22 6 41 14 14 6 23 3 32 -10 8 -10 14 -14 14 -8 0 7 -5 15
-10 18 -6 4 -7 11 -4 17 4 5 15 -3 26 -19 11 -15 18 -20 15 -11 -3 9 -3 19 1
21 4 2 1 2 -6 0 -8 -1 -12 3 -9 9 2 7 11 12 21 10 9 -2 16 2 16 8 0 6 -3 9 -8
6 -4 -2 -16 2 -27 10 -18 13 -17 14 9 12 16 -2 30 -8 33 -15 4 -9 9 -9 24 0
10 6 19 15 19 20 0 4 -5 5 -11 1 -7 -4 -10 -1 -7 7 3 8 11 14 18 14 7 0 15 7
17 15 4 13 3 13 -6 0 -6 -8 -11 -11 -11 -6 0 5 -7 3 -15 -4 -9 -7 -14 -19 -11
-27 3 -7 2 -13 -3 -13 -16 0 -20 13 -9 34 7 11 11 25 10 30 -2 5 4 6 13 3 8
-4 15 -2 15 3 0 6 -6 10 -12 10 -9 0 -8 4 2 10 21 13 30 12 26 -2 -1 -7 -1
-10 1 -5 3 4 10 4 16 0 7 -4 6 1 -2 10 -9 11 -10 17 -2 17 6 0 11 5 11 11 0 6
-5 7 -12 2 -7 -4 -22 -8 -33 -8 -11 0 -19 -6 -17 -12 1 -7 -2 -13 -8 -13 -6 0
-9 -6 -8 -12 2 -7 -2 -12 -9 -11 -6 1 -14 -4 -17 -12 -3 -10 0 -12 12 -9 9 3
6 -1 -8 -9 -14 -9 -28 -13 -32 -11 -8 5 -12 -11 -9 -30 2 -11 -19 -36 -31 -36
-6 0 -5 6 2 15 6 8 8 19 4 26 -5 8 -9 7 -16 -4 -5 -9 -15 -14 -24 -10 -11 4
-12 8 -4 13 6 4 12 16 13 28 0 12 3 19 6 17 2 -3 13 3 24 12 11 10 17 13 14 7
-9 -15 16 -25 34 -13 13 8 6 13 -13 10 -17 -2 -6 18 12 24 12 4 17 11 13 18
-4 7 1 6 10 -2 14 -11 17 -11 17 1 0 18 57 61 70 53 6 -3 10 3 10 14 0 14 5
19 15 15 8 -4 15 -1 15 5 0 6 6 11 14 11 7 0 19 7 26 15 7 8 16 12 21 9 5 -3
9 -2 9 3 0 4 10 13 23 19 60 30 125 68 157 92 47 35 130 124 130 140 0 6 4 12
9 12 9 0 82 144 80 157 -1 4 0 10 1 13 8 23 20 115 25 204 2 39 7 96 9 126 3
30 7 89 11 130 3 41 7 98 10 125 3 28 7 79 10 115 2 36 7 99 11 140 3 41 7 99
8 128 0 28 5 52 10 52 4 0 3 7 -4 15 -7 8 -8 15 -3 15 13 0 13 32 -1 49 -8 11
-8 13 2 7 9 -5 12 3 13 31 0 21 3 54 5 73 2 19 5 74 6 122 2 49 6 88 9 88 3 0
5 12 4 28 -1 15 2 42 6 59 4 22 3 31 -4 26 -6 -3 -7 -1 -3 5 7 12 11 37 21
152 4 41 9 78 12 83 2 4 -1 7 -7 7 -6 0 -8 5 -3 13 4 6 9 37 10 67 5 79 11
155 12 155 1 0 4 23 6 50 2 28 6 86 10 130 9 109 15 188 19 260 7 104 16 149
34 165 9 9 40 43 69 76 28 32 62 71 75 85 25 28 141 158 167 187 9 11 36 43
61 71 25 29 56 65 70 80 14 15 50 55 80 90 30 35 63 73 73 85 10 12 37 43 60
70 23 28 51 60 62 72 11 12 38 44 60 70 22 26 47 55 56 64 8 9 22 26 30 37 8
11 35 45 61 74 26 30 73 86 105 124 32 39 62 75 68 81 5 7 17 20 25 30 32 40
155 190 165 200 5 6 37 45 70 87 33 43 63 77 67 77 5 0 8 6 8 14 0 8 4 16 9
18 4 2 37 39 71 83 102 129 144 180 152 183 5 2 8 8 8 13 0 5 8 18 18 28 9 11
22 26 27 33 18 24 120 153 130 165 17 21 44 56 86 112 35 48 40 60 35 93 -3
21 -10 47 -16 58 -6 11 -7 20 -3 20 18 0 -53 60 -78 65 -16 4 -31 11 -34 16
-4 5 -15 9 -26 9 -10 0 -19 4 -19 10 0 5 -3 9 -7 8 -10 -2 -61 18 -95 38 -16
8 -28 13 -28 10 0 -2 -27 9 -60 25 -33 16 -64 29 -69 29 -5 0 -29 10 -53 21
-23 12 -52 26 -63 30 -88 36 -392 167 -443 190 -35 16 -69 29 -76 29 -6 0 -17
5 -24 12 -6 6 -19 13 -29 14 -9 2 -35 11 -57 22 -41 19 -97 44 -106 47 -5 2
-45 18 -90 38 -14 6 -27 11 -30 12 -3 1 -23 10 -45 19 -22 10 -53 24 -70 31
-16 7 -52 23 -80 35 -76 34 -135 59 -140 60 -3 0 -31 12 -62 27 -32 14 -64 25
-70 24 -7 -1 -13 3 -13 9 0 5 -3 9 -7 8 -5 -1 -35 11 -68 26 -33 15 -77 34
-98 42 -21 7 -50 20 -65 28 -15 8 -35 17 -45 20 -18 6 -16 16 23 111 12 29 23
59 24 65 1 3 6 19 13 35 26 67 67 180 68 185 2 11 28 87 40 115 28 65 125 354
124 369 0 5 3 12 8 15 4 3 19 39 31 78 27 85 26 88 -45 170 -31 36 -41 38
-343 58 -52 4 -117 9 -145 11 -27 2 -79 6 -115 8 -36 3 -90 7 -120 10 -30 3
-93 8 -140 11 -47 3 -112 7 -145 10 -33 3 -87 7 -120 10 -33 2 -85 7 -115 10
-30 2 -91 7 -135 10 -80 5 -142 9 -285 20 -41 4 -97 8 -125 10 -27 2 -81 6
-120 9 -38 4 -99 9 -135 11 -96 7 -181 15 -212 19 -16 2 -28 -1 -28 -6 0 -5
-6 -6 -12 -1 -7 4 -24 9 -38 10 -176 14 -347 26 -377 27 -13 0 -23 2 -23 6 0
3 -28 5 -63 6 -34 0 -100 4 -147 8 -162 13 -245 18 -302 20 -32 0 -58 3 -58 6
0 3 -24 6 -52 7 -60 1 -170 9 -273 18 -139 13 -184 13 -194 1z"/>
<path d="M7695 1640 c-3 -5 -1 -10 4 -10 6 0 11 5 11 10 0 6 -2 10 -4 10 -3 0
-8 -4 -11 -10z"/>
<path d="M7741 1634 c0 -11 3 -14 6 -6 3 7 2 16 -1 19 -3 4 -6 -2 -5 -13z"/>
<path d="M7790 1621 c0 -6 4 -13 10 -16 6 -3 7 1 4 9 -7 18 -14 21 -14 7z"/>
<path d="M7620 1580 c-12 -7 -10 -9 7 -7 12 0 19 5 17 9 -6 10 -6 10 -24 -2z"/>
<path d="M7730 1570 c-9 -6 -10 -10 -3 -10 6 0 15 5 18 10 8 12 4 12 -15 0z"/>
<path d="M7552 1538 c-17 -17 -15 -24 7 -25 11 -1 22 5 25 13 3 8 2 13 -3 9
-5 -3 -11 0 -13 5 -2 7 -8 6 -16 -2z"/>
<path d="M7717 1535 c-4 -8 -3 -16 1 -19 4 -3 9 4 9 15 2 23 -3 25 -10 4z"/>
<path d="M7766 1538 c3 -5 10 -6 15 -3 13 9 11 12 -6 12 -8 0 -12 -4 -9 -9z"/>
<path d="M7670 1469 c0 -5 -5 -7 -12 -3 -7 4 -8 3 -4 -4 4 -6 13 -9 21 -6 8 4
12 10 9 15 -7 12 -14 11 -14 -2z"/>
<path d="M7710 1470 c-9 -6 -10 -10 -3 -10 6 0 15 5 18 10 8 12 4 12 -15 0z"/>
<path d="M7636 1442 c-3 -4 4 -9 15 -9 23 -2 25 3 4 10 -8 4 -16 3 -19 -1z"/>
<path d="M7536 1422 c-2 -4 0 -14 6 -22 8 -12 9 -11 4 4 -5 13 -2 17 9 12 8
-3 15 -1 15 4 0 12 -27 13 -34 2z"/>
<path d="M7475 1400 c3 -5 8 -10 11 -10 2 0 4 5 4 10 0 6 -5 10 -11 10 -5 0
-7 -4 -4 -10z"/>
<path d="M7576 1401 c-3 -4 6 -7 19 -7 14 0 22 2 19 5 -8 8 -34 10 -38 2z"/>
<path d="M3236 1387 c3 -10 9 -15 12 -12 3 3 0 11 -7 18 -10 9 -11 8 -5 -6z"/>
<path d="M7454 1378 c-4 -7 -4 -10 1 -6 4 4 15 2 24 -5 14 -11 14 -10 2 6 -16
20 -18 21 -27 5z"/>
<path d="M7655 1380 c3 -5 8 -10 11 -10 2 0 4 5 4 10 0 6 -5 10 -11 10 -5 0
-7 -4 -4 -10z"/>
<path d="M3217 1361 c-4 -17 -3 -21 5 -13 5 5 8 16 6 23 -3 8 -7 3 -11 -10z"/>
<path d="M3376 1367 c3 -10 9 -15 12 -12 3 3 0 11 -7 18 -10 9 -11 8 -5 -6z"/>
<path d="M3430 1371 c0 -7 -4 -10 -8 -7 -5 3 -9 -2 -9 -10 0 -13 2 -13 16 0 8
9 12 19 8 22 -4 4 -7 2 -7 -5z"/>
<path d="M3470 1358 c0 -6 3 -8 7 -5 3 4 11 2 18 -3 8 -7 12 -6 12 3 0 7 -9
14 -19 14 -10 1 -18 -3 -18 -9z"/>
<path d="M3355 1341 c-3 -5 -2 -12 3 -15 5 -3 9 1 9 9 0 17 -3 19 -12 6z"/>
<path d="M3570 1340 c0 -5 5 -10 11 -10 5 0 7 5 4 10 -3 6 -8 10 -11 10 -2 0
-4 -4 -4 -10z"/>
<path d="M3182 1325 c15 -16 20 -17 30 -6 11 11 10 13 0 7 -7 -4 -21 -2 -30 5
-15 12 -15 11 0 -6z"/>
<path d="M3381 1324 c0 -11 3 -14 6 -6 3 7 2 16 -1 19 -3 4 -6 -2 -5 -13z"/>
<path d="M3230 1319 c0 -5 5 -7 10 -4 6 3 10 8 10 11 0 2 -4 4 -10 4 -5 0 -10
-5 -10 -11z"/>
<path d="M3286 1322 c-3 -5 1 -9 9 -9 8 0 15 4 15 9 0 4 -4 8 -9 8 -6 0 -12
-4 -15 -8z"/>
<path d="M7400 1326 c0 -2 8 -10 18 -17 15 -13 16 -12 3 4 -13 16 -21 21 -21
13z"/>
<path d="M3260 1306 c0 -2 8 -10 18 -17 15 -13 16 -12 3 4 -13 16 -21 21 -21
13z"/>
</g>
</svg>
